<?xml version="1.0" encoding="UTF-8"?>
<svg id="Layer_2" xmlns="http://www.w3.org/2000/svg" version="1.1" viewBox="0 0 325.35 304.39">
  <!-- Generator: Adobe Illustrator 29.4.0, SVG Export Plug-In . SVG Version: 2.1.0 Build 152)  -->
  <defs>
    <style>
      .st0 {
        fill: #1e2430;
      }
    </style>
  </defs>
  <path class="st0" d="M290.57,50.82c2.76,2.26,6.27,3.78,10.53,4.58v3.5c0,1.26,1.02,2.27,2.27,2.27h4.66c1.26,0,2.27-1.02,2.27-2.27v-3.06c3.09-.34,5.78-1.23,8.05-2.7,2.28-1.46,4.01-3.26,5.2-5.39,1.19-2.13,1.79-4.35,1.79-6.64,0-2.46-.66-4.84-1.97-7.11-1.32-2.28-3.35-4.25-6.11-5.92-2.76-1.67-6.16-2.76-10.22-3.26h-.13c-2.55-.29-4.79-1-6.71-2.13-1.92-1.13-2.88-2.49-2.88-4.07,0-.92.42-1.76,1.25-2.51.84-.75,2.06-1.34,3.67-1.75,1.61-.42,3.54-.58,5.8-.5h.25c1.75,0,3.64.36,5.64,1.07,1.22.43,2.3.9,3.26,1.41,1.01.54,2.26.25,2.93-.68l2.77-3.86c.79-1.1.44-2.64-.74-3.31-1.25-.71-2.67-1.36-4.23-1.96-2.53-.96-5.07-1.57-7.62-1.82v-2.41c0-1.26-1.02-2.27-2.27-2.27h-4.66c-1.26,0-2.27,1.02-2.27,2.27v2.79c-2.84.54-5.23,1.5-7.18,2.88-1.94,1.38-3.41,2.99-4.39,4.83-.98,1.84-1.47,3.76-1.47,5.77,0,1.84.41,3.63,1.22,5.36.81,1.73,1.97,3.29,3.48,4.67,1.59,1.46,3.51,2.65,5.77,3.57,2.26.92,4.72,1.53,7.4,1.82,3.34.46,5.87,1.36,7.58,2.7,1.71,1.34,2.57,2.8,2.57,4.39,0,.96-.32,1.87-.97,2.73-.65.86-1.59,1.56-2.82,2.1-1.23.54-2.71.81-4.42.81h-.31c-4.89,0-8.61-1.02-11.16-3.07-.54-.44-1.04-.91-1.49-1.41-.77-.85-2.03-1.04-2.98-.39l-3.89,2.65c-1.11.76-1.33,2.31-.46,3.34.89,1.05,1.89,2.06,3,3.01Z"/>
  <path class="st0" d="M318.1,149.21c-9.36-5.89-18.81-7.6-28.08-5.09-16.61,4.49-27.13,21.17-29.67,25.6l-27.43,14.03c-3.75-4.44-9.32-7.32-15.52-7.41l-36.06-.55c-4.27-.06-8.42-1.33-12-3.67l-8.18-5.33c-4.87-3.18-10.53-4.86-16.35-4.86h-26.7c-7.63,0-14.9,2.87-20.47,8.09l-34.05,31.92-12.32-12.78c-1.38-1.43-3.66-1.5-5.12-.15l-34.81,32.07c-1.49,1.37-1.58,3.69-.21,5.18,1.37,1.49,3.69,1.58,5.18.21l32.18-29.64,68.31,70.87-30.44,30.44c-1.43,1.43-1.43,3.75,0,5.18.72.72,1.65,1.07,2.59,1.07s1.88-.36,2.59-1.07l32.98-32.98c1.41-1.41,1.43-3.7.05-5.13l-6.38-6.62h113.68c.73,0,1.44-.22,2.04-.62,61.65-41.41,84.73-101.82,85.68-104.37.61-1.63-.01-3.46-1.48-4.38ZM230.74,251.26h-118.9c-.23,0-.45.03-.66.07l-42.51-44.1,33.98-31.85c4.2-3.94,9.69-6.11,15.45-6.11h26.7c4.39,0,8.66,1.27,12.34,3.67l8.18,5.33c4.74,3.09,10.24,4.77,15.89,4.86l36.06.55c7.28.11,13.21,6.13,13.21,13.41s-6.02,13.41-13.41,13.41h-58.96c-2.02,0-3.66,1.64-3.66,3.66s1.64,3.66,3.66,3.66h58.96c11.44,0,20.74-9.3,20.74-20.74,0-2.44-.43-4.79-1.22-6.98l28.09-14.36c.67-.34,1.23-.89,1.58-1.56.1-.19,10.02-18.77,25.71-22.99,6.36-1.71,12.93-.8,19.58,2.7-5.32,12.37-29.18,62.3-80.8,97.38Z"/>
  <path class="st0" d="M309.67,67.61c-8.59,0-15.57,6.99-15.57,15.57,0,1.65.26,3.24.74,4.73l-99.3,50.79c-2.85-3.67-7.3-6.05-12.3-6.05-2.54,0-4.93.62-7.04,1.7l-19.17-24.2c2.07-2.64,3.31-5.96,3.31-9.57,0-8.59-6.99-15.57-15.57-15.57s-15.57,6.99-15.57,15.57c0,1.35.19,2.65.51,3.9l-101.77,54.44c-2.85-3.71-7.32-6.12-12.34-6.12-8.59,0-15.57,6.99-15.57,15.57s6.99,15.57,15.57,15.57,15.57-6.99,15.57-15.57c0-.94-.1-1.85-.26-2.74l102.26-54.7c2.85,3.19,6.99,5.22,11.6,5.22,2.33,0,4.53-.53,6.52-1.45l19.35,24.41c-1.85,2.56-2.96,5.7-2.96,9.1,0,8.59,6.99,15.57,15.57,15.57s15.57-6.99,15.57-15.57c0-.97-.1-1.91-.27-2.83l100.12-51.21c2.82,2.82,6.71,4.57,11.01,4.57,8.59,0,15.57-6.99,15.57-15.57s-6.99-15.57-15.57-15.57ZM15.57,176.63c-4.55,0-8.25-3.7-8.25-8.25s3.7-8.25,8.25-8.25,8.25,3.7,8.25,8.25-3.7,8.25-8.25,8.25ZM136.51,100.59c0-4.55,3.7-8.25,8.25-8.25s8.25,3.7,8.25,8.25-3.7,8.25-8.25,8.25-8.25-3.7-8.25-8.25ZM183.23,156.47c-4.55,0-8.25-3.7-8.25-8.25s3.7-8.25,8.25-8.25,8.25,3.7,8.25,8.25-3.7,8.25-8.25,8.25ZM309.67,91.43c-4.55,0-8.25-3.7-8.25-8.25s3.7-8.25,8.25-8.25,8.25,3.7,8.25,8.25-3.7,8.25-8.25,8.25Z"/>
</svg>