<?xml version="1.0" encoding="UTF-8"?>
<svg id="_x2018_ëîé_x5F_1" xmlns="http://www.w3.org/2000/svg" version="1.1" viewBox="0 0 517.42 365.24">
  <!-- Generator: Adobe Illustrator 29.4.0, SVG Export Plug-In . SVG Version: 2.1.0 Build 152)  -->
  <defs>
    <style>
      .st0 {
        fill: blue;
      }
    </style>
  </defs>
  <g>
    <g>
      <path class="st0" d="M117.98,346.48h-61.45c-3.5,0-6.34-2.84-6.34-6.34v-69.69c0-3.5,2.84-6.34,6.34-6.34h61.45c3.5,0,6.34,2.84,6.34,6.34v69.69c0,3.5-2.84,6.34-6.34,6.34ZM62.86,333.8h48.78v-57.01h-48.78v57.01Z"/>
      <path class="st0" d="M179.44,346.48h-61.45c-3.5,0-6.34-2.84-6.34-6.34v-166.8c0-3.5,2.84-6.34,6.34-6.34h61.45c3.5,0,6.34,2.84,6.34,6.34v166.8c0,3.5-2.84,6.34-6.34,6.34ZM124.32,333.8h48.78v-154.13h-48.78v154.13Z"/>
      <path class="st0" d="M240.89,346.48h-61.45c-3.5,0-6.34-2.84-6.34-6.34v-116.47c0-3.5,2.84-6.34,6.34-6.34h61.45c3.5,0,6.34,2.84,6.34,6.34v116.47c0,3.5-2.84,6.34-6.34,6.34ZM185.77,333.8h48.78v-103.8h-48.78v103.8Z"/>
      <path class="st0" d="M302.34,346.48h-61.45c-3.5,0-6.34-2.84-6.34-6.34V121.35c0-3.5,2.84-6.34,6.34-6.34h61.45c3.5,0,6.34,2.84,6.34,6.34v15.47c0,3.5-2.84,6.34-6.34,6.34s-6.34-2.84-6.34-6.34v-9.14h-48.78v206.11h48.78v-46.54c0-3.5,2.84-6.34,6.34-6.34s6.34,2.84,6.34,6.34v52.88c0,3.5-2.84,6.34-6.34,6.34Z"/>
      <g>
        <path class="st0" d="M302.34,128.92c-3.5,0-6.34-2.84-6.34-6.34V22.57c0-3.5,2.84-6.34,6.34-6.34h61.45c3.5,0,6.34,2.84,6.34,6.34v87.67c0,3.5-2.84,6.34-6.34,6.34s-6.34-2.84-6.34-6.34V28.91h-48.78v93.67c0,3.5-2.84,6.34-6.34,6.34Z"/>
        <path class="st0" d="M363.79,346.48h-61.45c-3.5,0-6.34-2.84-6.34-6.34v-51.19c0-3.5,2.84-6.34,6.34-6.34s6.34,2.84,6.34,6.34v44.85h48.78v-21.26c0-3.5,2.84-6.34,6.34-6.34s6.34,2.84,6.34,6.34v27.6c0,3.5-2.84,6.34-6.34,6.34Z"/>
      </g>
    </g>
    <path class="st0" d="M397.8,346.48H22.52c-3.5,0-6.34-2.84-6.34-6.34s2.84-6.34,6.34-6.34h375.29c3.5,0,6.34,2.84,6.34,6.34s-2.84,6.34-6.34,6.34Z"/>
  </g>
  <g>
    <path class="st0" d="M369.22,291.68c-44.44,0-80.59-36.15-80.59-80.59s36.15-80.59,80.59-80.59,80.59,36.15,80.59,80.59-36.15,80.59-80.59,80.59ZM369.22,143.16c-37.45,0-67.92,30.47-67.92,67.92s30.47,67.92,67.92,67.92,67.92-30.47,67.92-67.92-30.47-67.92-67.92-67.92Z"/>
    <g>
      <path class="st0" d="M445.4,293.6c-1.62,0-3.24-.62-4.48-1.86l-8.25-8.25c-2.48-2.48-2.48-6.49,0-8.96,2.48-2.48,6.49-2.47,8.96,0l8.25,8.25c2.48,2.48,2.48,6.49,0,8.96-1.24,1.24-2.86,1.86-4.48,1.86Z"/>
      <path class="st0" d="M482.67,345.09c-5.26,0-10.53-2-14.54-6.01l-27.22-27.22c-8.02-8.02-8.02-21.06,0-29.08,8.01-8.02,21.06-8.02,29.08,0l27.22,27.22c8.02,8.02,8.02,21.06,0,29.08-4.01,4.01-9.27,6.01-14.54,6.01ZM455.46,289.43c-2.11,0-4.09.82-5.58,2.31s-2.31,3.47-2.31,5.58.82,4.09,2.31,5.58l27.22,27.22c2.98,2.98,8.18,2.97,11.16,0,1.49-1.49,2.31-3.47,2.31-5.58s-.82-4.09-2.31-5.58l-27.22-27.22c-1.49-1.49-3.47-2.31-5.58-2.31Z"/>
    </g>
  </g>
</svg>