<?xml version="1.0" encoding="UTF-8"?>
<svg id="Layer_1" xmlns="http://www.w3.org/2000/svg" version="1.1" viewBox="0 0 1183 1094">
  <!-- Generator: Adobe Illustrator 29.4.0, SVG Export Plug-In . SVG Version: 2.1.0 Build 152)  -->
  <defs>
    <style>
      .st0 {
        fill: #3a525e;
      }
    </style>
  </defs>
  <path class="st0" d="M677.44,373.32v609.8h413.74V126.72c0-16.08-10.34-31.02-25.46-36.95-198.16-78.31-399-78.31-597.16,0-15.12,5.94-25.46,20.87-25.46,36.95v142.06c65.48,6.51,130.96,22.59,195.86,48.44,23.36,9.19,38.48,31.21,38.48,56.1ZM800.55,154.67c5.55-5.74,14.55-5.94,20.29-.38,19.15,18.19,30.06,43.65,30.06,70.07v16.66h118.13v-16.66c0-18.57-7.66-36.57-21.06-49.4-5.74-5.36-5.94-14.55-.57-20.29,5.55-5.74,14.74-5.94,20.29-.38,19.15,18.19,30.06,43.65,30.06,70.07v688.87c0,7.85-6.51,14.36-14.36,14.36s-14.36-6.51-14.36-14.36v-52.65h-118.13v52.65c0,7.85-6.51,14.36-14.36,14.36s-14.36-6.51-14.36-14.36V224.36c0-18.57-7.66-36.57-21.06-49.4-5.74-5.36-5.94-14.55-.58-20.29Z"/>
  <rect class="st0" x="850.91" y="269.74" width="118.13" height="89.41"/>
  <rect class="st0" x="850.91" y="387.87" width="118.13" height="89.41"/>
  <rect class="st0" x="850.91" y="506" width="118.13" height="89.41"/>
  <rect class="st0" x="850.91" y="624.13" width="118.13" height="89.41"/>
  <rect class="st0" x="850.91" y="742.26" width="118.13" height="89.6"/>
  <path class="st0" d="M648.72,373.32c0-13.02-8.04-24.7-20.29-29.48-167.53-66.25-337.54-66.25-505.26,0-12.25,4.79-20.1,16.47-20.1,29.48v609.8h545.66V373.32ZM375.89,802.38c-59.16,0-107.22-48.06-107.22-107.22,0-53.61,85.2-197.4,94.77-213.67,5.17-8.62,19.53-8.62,24.7,0,9.76,16.27,94.96,160.06,94.96,213.67,0,59.16-48.25,107.22-107.22,107.22Z"/>
  <path class="st0" d="M297.4,695.17c0,43.46,35.23,78.5,78.5,78.5s78.5-35.04,78.5-78.5c0-33.51-49.01-125.98-78.5-177.87-29.68,51.89-78.5,144.36-78.5,177.87Z"/>
  <path class="st0" d="M428.74,1011.84H37.01v60.5h1120.04v-60.5H428.74Z"/>
</svg>